# MagicaVoxel @ Ephtracy

# group
o 

# material
mtllib Shotgun.mtl
usemtl palette

# normals
vn -1 0 0
vn 1 0 0
vn 0 0 1
vn 0 0 -1
vn 0 -1 0
vn 0 1 0

# texcoords
vt 0.873047 0.5
vt 0.990234 0.5
vt 0.994141 0.5

# verts
v 0.4 3 0
v 0.4 3 -0.5
v 0.4 3.3 0
v 0.4 3.3 -0.5
v 0.5 2.9 -0.1
v 0.5 2.9 -0.4
v 0.5 3 -0.1
v 0.5 3 -0.4
v 0.5 3.3 -0.1
v 0.5 3.3 -0.4
v 0.5 3.4 -0.1
v 0.5 3.4 -0.4
v 1.3 2.9 -0.1
v 1.3 2.9 -0.4
v 1.3 3 -0.1
v 1.3 3 -0.4
v 1.6 3.2 -0.1
v 1.6 3.2 -0.4
v 1.6 3.3 -0.1
v 1.6 3.3 -0.4
v 1.7 3.2 0
v 1.7 3.2 -0.1
v 1.7 3.2 -0.4
v 1.7 3.2 -0.5
v 1.7 3.3 0
v 1.7 3.3 -0.1
v 1.7 3.3 -0.4
v 1.7 3.3 -0.5
v 1.7 3.4 -0.1
v 1.7 3.4 -0.4
v 1.8 3.4 -0.1
v 1.8 3.4 -0.4
v 1.8 3.5 -0.2
v 1.8 3.5 -0.3
v 1.8 3.6 -0.1
v 1.8 3.6 -0.2
v 1.8 3.6 -0.3
v 1.8 3.6 -0.4
v 2 2.9 -0.2
v 2 2.9 -0.3
v 2 3.1 -0.2
v 2 3.1 -0.3
v 2.1 3 -0.1
v 2.1 3 -0.2
v 2.1 3 -0.3
v 2.1 3 -0.4
v 2.1 3.1 -0.1
v 2.1 3.1 -0.2
v 2.1 3.1 -0.3
v 2.1 3.1 -0.4
v 4.4 3.4 -0.2
v 4.4 3.4 -0.3
v 4.4 3.5 -0.2
v 4.4 3.5 -0.3
v 1.1 2.9 -0.1
v 1.1 2.9 -0.4
v 1.1 3 -0.1
v 1.1 3 -0.4
v 1.2 3.2 0
v 1.2 3.2 -0.1
v 1.2 3.2 -0.4
v 1.2 3.2 -0.5
v 1.2 3.3 0
v 1.2 3.3 -0.1
v 1.2 3.3 -0.4
v 1.2 3.3 -0.5
v 1.2 3.4 -0.1
v 1.2 3.4 -0.4
v 1.3 3.2 -0.1
v 1.3 3.2 -0.4
v 1.3 3.3 -0.1
v 1.3 3.3 -0.4
v 1.7 2.9 -0.1
v 1.7 2.9 -0.4
v 1.7 3 -0.1
v 1.7 3 -0.4
v 1.8 3 0
v 1.8 3 -0.5
v 1.8 3.1 0
v 1.8 3.1 -0.5
v 1.9 3.4 -0.1
v 1.9 3.4 -0.4
v 1.9 3.5 -0.2
v 1.9 3.5 -0.3
v 1.9 3.6 -0.1
v 1.9 3.6 -0.2
v 1.9 3.6 -0.3
v 1.9 3.6 -0.4
v 2 3.3 -0.1
v 2 3.3 -0.2
v 2 3.3 -0.3
v 2 3.3 -0.4
v 2 3.4 -0.1
v 2 3.4 -0.2
v 2 3.4 -0.3
v 2 3.4 -0.4
v 2.1 2.9 -0.2
v 2.1 2.9 -0.3
v 2.1 3 -0.2
v 2.1 3 -0.3
v 4.4 3 -0.1
v 4.4 3 -0.4
v 4.4 3.1 0
v 4.4 3.1 -0.1
v 4.4 3.1 -0.4
v 4.4 3.1 -0.5
v 4.4 3.2 -0.1
v 4.4 3.2 -0.4
v 4.4 3.3 0
v 4.4 3.3 -0.1
v 4.4 3.3 -0.2
v 4.4 3.3 -0.3
v 4.4 3.3 -0.4
v 4.4 3.3 -0.5
v 4.5 3.3 -0.2
v 4.5 3.3 -0.3
v 4.5 3.4 -0.2
v 4.5 3.4 -0.3
v 4.5 3.5 -0.2
v 4.5 3.5 -0.3
v 0.4 3 0
v 0.4 3.3 0
v 0.5 3 0
v 0.5 3.3 0
v 1.2 3.2 0
v 1.2 3.3 0
v 1.7 3.2 0
v 1.7 3.3 0
v 1.8 3 0
v 1.8 3.1 0
v 4.4 3.1 0
v 4.4 3.3 0
v 0.5 2.9 -0.1
v 0.5 3 -0.1
v 0.5 3.3 -0.1
v 0.5 3.4 -0.1
v 0.6 2.9 -0.1
v 0.6 3 -0.1
v 0.6 3.3 -0.1
v 0.6 3.4 -0.1
v 1.1 2.9 -0.1
v 1.1 3 -0.1
v 1.2 3.2 -0.1
v 1.2 3.3 -0.1
v 1.2 3.4 -0.1
v 1.3 2.9 -0.1
v 1.3 3 -0.1
v 1.3 3.2 -0.1
v 1.3 3.3 -0.1
v 1.6 3.2 -0.1
v 1.6 3.3 -0.1
v 1.7 2.9 -0.1
v 1.7 3 -0.1
v 1.7 3.2 -0.1
v 1.7 3.3 -0.1
v 1.7 3.4 -0.1
v 1.8 3.4 -0.1
v 1.8 3.6 -0.1
v 1.9 3.4 -0.1
v 1.9 3.6 -0.1
v 2 3.3 -0.1
v 2 3.4 -0.1
v 2.1 3 -0.1
v 2.1 3.1 -0.1
v 4.4 3 -0.1
v 4.4 3.1 -0.1
v 2 2.9 -0.2
v 2 3.1 -0.2
v 2 3.3 -0.2
v 2 3.4 -0.2
v 2.1 2.9 -0.2
v 2.1 3 -0.2
v 2.1 3.1 -0.2
v 4.4 3.3 -0.2
v 4.4 3.4 -0.2
v 4.4 3.5 -0.2
v 4.5 3.3 -0.2
v 4.5 3.4 -0.2
v 4.5 3.5 -0.2
v 1.8 3.5 -0.3
v 1.8 3.6 -0.3
v 1.9 3.5 -0.3
v 1.9 3.6 -0.3
v 1.8 3.5 -0.2
v 1.8 3.6 -0.2
v 1.9 3.5 -0.2
v 1.9 3.6 -0.2
v 2 2.9 -0.3
v 2 3.1 -0.3
v 2 3.3 -0.3
v 2 3.4 -0.3
v 2.1 2.9 -0.3
v 2.1 3 -0.3
v 2.1 3.1 -0.3
v 4.4 3.3 -0.3
v 4.4 3.4 -0.3
v 4.4 3.5 -0.3
v 4.5 3.3 -0.3
v 4.5 3.4 -0.3
v 4.5 3.5 -0.3
v 0.5 2.9 -0.4
v 0.5 3 -0.4
v 0.5 3.3 -0.4
v 0.5 3.4 -0.4
v 0.6 2.9 -0.4
v 0.6 3 -0.4
v 0.6 3.3 -0.4
v 0.6 3.4 -0.4
v 1.1 2.9 -0.4
v 1.1 3 -0.4
v 1.2 3.2 -0.4
v 1.2 3.3 -0.4
v 1.2 3.4 -0.4
v 1.3 2.9 -0.4
v 1.3 3 -0.4
v 1.3 3.2 -0.4
v 1.3 3.3 -0.4
v 1.6 3.2 -0.4
v 1.6 3.3 -0.4
v 1.7 2.9 -0.4
v 1.7 3 -0.4
v 1.7 3.2 -0.4
v 1.7 3.3 -0.4
v 1.7 3.4 -0.4
v 1.8 3.4 -0.4
v 1.8 3.6 -0.4
v 1.9 3.4 -0.4
v 1.9 3.6 -0.4
v 2 3.3 -0.4
v 2 3.4 -0.4
v 2.1 3 -0.4
v 2.1 3.1 -0.4
v 4.4 3 -0.4
v 4.4 3.1 -0.4
v 0.4 3 -0.5
v 0.4 3.3 -0.5
v 0.5 3 -0.5
v 0.5 3.3 -0.5
v 1.2 3.2 -0.5
v 1.2 3.3 -0.5
v 1.7 3.2 -0.5
v 1.7 3.3 -0.5
v 1.8 3 -0.5
v 1.8 3.1 -0.5
v 4.4 3.1 -0.5
v 4.4 3.3 -0.5
v 0.5 2.9 -0.1
v 0.6 2.9 -0.1
v 1.1 2.9 -0.1
v 1.3 2.9 -0.1
v 1.7 2.9 -0.1
v 2 2.9 -0.2
v 2.1 2.9 -0.2
v 2 2.9 -0.3
v 2.1 2.9 -0.3
v 0.5 2.9 -0.4
v 0.6 2.9 -0.4
v 1.1 2.9 -0.4
v 1.3 2.9 -0.4
v 1.7 2.9 -0.4
v 0.4 3 0
v 0.5 3 0
v 1.8 3 0
v 0.5 3 -0.1
v 0.6 3 -0.1
v 1.1 3 -0.1
v 1.3 3 -0.1
v 1.7 3 -0.1
v 2.1 3 -0.1
v 4.4 3 -0.1
v 2.1 3 -0.2
v 2.1 3 -0.3
v 0.5 3 -0.4
v 0.6 3 -0.4
v 1.1 3 -0.4
v 1.3 3 -0.4
v 1.7 3 -0.4
v 2.1 3 -0.4
v 4.4 3 -0.4
v 0.4 3 -0.5
v 0.5 3 -0.5
v 1.8 3 -0.5
v 1.8 3.1 0
v 4.4 3.1 0
v 2.1 3.1 -0.1
v 4.4 3.1 -0.1
v 2 3.1 -0.2
v 2.1 3.1 -0.2
v 2 3.1 -0.3
v 2.1 3.1 -0.3
v 2.1 3.1 -0.4
v 4.4 3.1 -0.4
v 1.8 3.1 -0.5
v 4.4 3.1 -0.5
v 4.4 3.3 -0.2
v 4.5 3.3 -0.2
v 4.4 3.3 -0.3
v 4.5 3.3 -0.3
v 1.2 3.2 0
v 1.7 3.2 0
v 1.2 3.2 -0.1
v 1.3 3.2 -0.1
v 1.6 3.2 -0.1
v 1.7 3.2 -0.1
v 1.2 3.2 -0.4
v 1.3 3.2 -0.4
v 1.6 3.2 -0.4
v 1.7 3.2 -0.4
v 1.2 3.2 -0.5
v 1.7 3.2 -0.5
v 0.4 3.3 0
v 0.5 3.3 0
v 1.2 3.3 0
v 1.7 3.3 0
v 4.4 3.3 0
v 0.5 3.3 -0.1
v 0.6 3.3 -0.1
v 1.2 3.3 -0.1
v 1.3 3.3 -0.1
v 1.6 3.3 -0.1
v 1.7 3.3 -0.1
v 2 3.3 -0.1
v 4.4 3.3 -0.1
v 2 3.3 -0.2
v 4.4 3.3 -0.2
v 2 3.3 -0.3
v 4.4 3.3 -0.3
v 0.5 3.3 -0.4
v 0.6 3.3 -0.4
v 1.2 3.3 -0.4
v 1.3 3.3 -0.4
v 1.6 3.3 -0.4
v 1.7 3.3 -0.4
v 2 3.3 -0.4
v 4.4 3.3 -0.4
v 0.4 3.3 -0.5
v 0.5 3.3 -0.5
v 1.2 3.3 -0.5
v 1.7 3.3 -0.5
v 4.4 3.3 -0.5
v 0.5 3.4 -0.1
v 0.6 3.4 -0.1
v 1.2 3.4 -0.1
v 1.7 3.4 -0.1
v 1.8 3.4 -0.1
v 1.9 3.4 -0.1
v 2 3.4 -0.1
v 2 3.4 -0.2
v 4.4 3.4 -0.2
v 2 3.4 -0.3
v 4.4 3.4 -0.3
v 0.5 3.4 -0.4
v 0.6 3.4 -0.4
v 1.2 3.4 -0.4
v 1.7 3.4 -0.4
v 1.8 3.4 -0.4
v 1.9 3.4 -0.4
v 2 3.4 -0.4
v 1.8 3.5 -0.2
v 1.9 3.5 -0.2
v 4.4 3.5 -0.2
v 4.5 3.5 -0.2
v 1.8 3.5 -0.3
v 1.9 3.5 -0.3
v 4.4 3.5 -0.3
v 4.5 3.5 -0.3
v 1.8 3.6 -0.1
v 1.9 3.6 -0.1
v 1.8 3.6 -0.2
v 1.9 3.6 -0.2
v 1.8 3.6 -0.3
v 1.9 3.6 -0.3
v 1.8 3.6 -0.4
v 1.9 3.6 -0.4

# faces
f 3/2/1 2/2/1 1/2/1
f 4/2/1 2/2/1 3/2/1
f 7/2/1 6/2/1 5/2/1
f 8/2/1 6/2/1 7/2/1
f 11/2/1 10/2/1 9/2/1
f 12/2/1 10/2/1 11/2/1
f 15/1/1 14/1/1 13/1/1
f 16/1/1 14/1/1 15/1/1
f 19/1/1 18/1/1 17/1/1
f 20/1/1 18/1/1 19/1/1
f 25/1/1 22/1/1 21/1/1
f 26/1/1 22/1/1 25/1/1
f 27/1/1 24/1/1 23/1/1
f 28/1/1 24/1/1 27/1/1
f 29/1/1 27/1/1 26/1/1
f 30/1/1 27/1/1 29/1/1
f 33/3/1 32/3/1 31/3/1
f 34/3/1 32/3/1 33/3/1
f 35/3/1 33/3/1 31/3/1
f 36/3/1 33/3/1 35/3/1
f 37/3/1 32/3/1 34/3/1
f 38/3/1 32/3/1 37/3/1
f 41/2/1 40/2/1 39/2/1
f 42/2/1 40/2/1 41/2/1
f 47/1/1 44/1/1 43/1/1
f 48/1/1 44/1/1 47/1/1
f 49/1/1 46/1/1 45/1/1
f 50/1/1 46/1/1 49/1/1
f 53/3/1 52/3/1 51/3/1
f 54/3/1 52/3/1 53/3/1
f 55/1/2 56/1/2 57/1/2
f 57/1/2 56/1/2 58/1/2
f 59/1/2 60/1/2 63/1/2
f 63/1/2 60/1/2 64/1/2
f 61/1/2 62/1/2 65/1/2
f 65/1/2 62/1/2 66/1/2
f 64/1/2 65/1/2 67/1/2
f 67/1/2 65/1/2 68/1/2
f 69/1/2 70/1/2 71/1/2
f 71/1/2 70/1/2 72/1/2
f 73/1/2 74/1/2 75/1/2
f 75/1/2 74/1/2 76/1/2
f 77/1/2 78/1/2 79/1/2
f 79/1/2 78/1/2 80/1/2
f 81/3/2 82/3/2 83/3/2
f 83/3/2 82/3/2 84/3/2
f 81/3/2 83/3/2 85/3/2
f 85/3/2 83/3/2 86/3/2
f 84/3/2 82/3/2 87/3/2
f 87/3/2 82/3/2 88/3/2
f 89/1/2 90/1/2 93/1/2
f 93/1/2 90/1/2 94/1/2
f 91/1/2 92/1/2 95/1/2
f 95/1/2 92/1/2 96/1/2
f 97/2/2 98/2/2 99/2/2
f 99/2/2 98/2/2 100/2/2
f 101/1/2 102/1/2 104/1/2
f 104/1/2 102/1/2 105/1/2
f 103/1/2 104/1/2 107/1/2
f 105/1/2 106/1/2 107/1/2
f 104/1/2 105/1/2 107/1/2
f 107/1/2 106/1/2 108/1/2
f 103/1/2 107/1/2 109/1/2
f 107/3/2 108/3/2 110/3/2
f 109/1/2 107/1/2 110/1/2
f 110/3/2 108/3/2 111/3/2
f 111/3/2 108/3/2 112/3/2
f 108/1/2 106/1/2 113/1/2
f 112/3/2 108/3/2 113/3/2
f 113/1/2 106/1/2 114/1/2
f 115/2/2 116/2/2 117/2/2
f 117/2/2 116/2/2 118/2/2
f 117/3/2 118/3/2 119/3/2
f 119/3/2 118/3/2 120/3/2
f 123/2/3 122/2/3 121/2/3
f 124/2/3 122/2/3 123/2/3
f 125/1/3 124/1/3 123/1/3
f 126/1/3 124/1/3 125/1/3
f 127/1/3 125/1/3 123/1/3
f 129/1/3 127/1/3 123/1/3
f 129/1/3 128/1/3 127/1/3
f 130/1/3 128/1/3 129/1/3
f 131/1/3 128/1/3 130/1/3
f 132/1/3 128/1/3 131/1/3
f 137/2/3 134/2/3 133/2/3
f 138/2/3 134/2/3 137/2/3
f 139/2/3 136/2/3 135/2/3
f 140/2/3 136/2/3 139/2/3
f 141/1/3 138/1/3 137/1/3
f 142/1/3 138/1/3 141/1/3
f 144/1/3 140/1/3 139/1/3
f 145/1/3 140/1/3 144/1/3
f 148/1/3 144/1/3 143/1/3
f 149/1/3 144/1/3 148/1/3
f 152/1/3 147/1/3 146/1/3
f 153/1/3 147/1/3 152/1/3
f 154/1/3 151/1/3 150/1/3
f 155/1/3 151/1/3 154/1/3
f 157/1/3 156/1/3 155/1/3
f 159/1/3 157/1/3 155/1/3
f 159/3/3 158/3/3 157/3/3
f 160/3/3 158/3/3 159/3/3
f 161/1/3 159/1/3 155/1/3
f 162/1/3 159/1/3 161/1/3
f 165/1/3 164/1/3 163/1/3
f 166/1/3 164/1/3 165/1/3
f 171/2/3 168/2/3 167/2/3
f 172/2/3 168/2/3 171/2/3
f 173/2/3 168/2/3 172/2/3
f 174/2/3 170/2/3 169/2/3
f 175/2/3 170/2/3 174/2/3
f 177/2/3 175/2/3 174/2/3
f 178/3/3 176/3/3 175/3/3
f 178/2/3 175/2/3 177/2/3
f 179/3/3 176/3/3 178/3/3
f 182/3/3 181/3/3 180/3/3
f 183/3/3 181/3/3 182/3/3
f 184/3/4 185/3/4 186/3/4
f 186/3/4 185/3/4 187/3/4
f 188/2/4 189/2/4 192/2/4
f 192/2/4 189/2/4 193/2/4
f 193/2/4 189/2/4 194/2/4
f 190/2/4 191/2/4 195/2/4
f 195/2/4 191/2/4 196/2/4
f 195/2/4 196/2/4 198/2/4
f 196/3/4 197/3/4 199/3/4
f 198/2/4 196/2/4 199/2/4
f 199/3/4 197/3/4 200/3/4
f 201/2/4 202/2/4 205/2/4
f 205/2/4 202/2/4 206/2/4
f 203/2/4 204/2/4 207/2/4
f 207/2/4 204/2/4 208/2/4
f 205/1/4 206/1/4 209/1/4
f 209/1/4 206/1/4 210/1/4
f 207/1/4 208/1/4 212/1/4
f 212/1/4 208/1/4 213/1/4
f 211/1/4 212/1/4 216/1/4
f 216/1/4 212/1/4 217/1/4
f 214/1/4 215/1/4 220/1/4
f 220/1/4 215/1/4 221/1/4
f 218/1/4 219/1/4 222/1/4
f 222/1/4 219/1/4 223/1/4
f 223/1/4 224/1/4 225/1/4
f 223/1/4 225/1/4 227/1/4
f 225/3/4 226/3/4 227/3/4
f 227/3/4 226/3/4 228/3/4
f 223/1/4 227/1/4 229/1/4
f 229/1/4 227/1/4 230/1/4
f 231/1/4 232/1/4 233/1/4
f 233/1/4 232/1/4 234/1/4
f 235/2/4 236/2/4 237/2/4
f 237/2/4 236/2/4 238/2/4
f 237/1/4 238/1/4 239/1/4
f 239/1/4 238/1/4 240/1/4
f 237/1/4 239/1/4 241/1/4
f 237/1/4 241/1/4 243/1/4
f 241/1/4 242/1/4 243/1/4
f 243/1/4 242/1/4 244/1/4
f 244/1/4 242/1/4 245/1/4
f 245/1/4 242/1/4 246/1/4
f 254/2/5 253/2/5 252/2/5
f 255/2/5 253/2/5 254/2/5
f 256/2/5 248/2/5 247/2/5
f 257/1/5 249/1/5 248/1/5
f 257/2/5 248/2/5 256/2/5
f 258/1/5 249/1/5 257/1/5
f 259/1/5 251/1/5 250/1/5
f 260/1/5 251/1/5 259/1/5
f 264/2/5 262/2/5 261/2/5
f 264/1/5 263/1/5 262/1/5
f 265/1/5 263/1/5 264/1/5
f 266/1/5 263/1/5 265/1/5
f 267/1/5 263/1/5 266/1/5
f 268/1/5 263/1/5 267/1/5
f 271/1/5 270/1/5 269/1/5
f 272/1/5 270/1/5 271/1/5
f 273/2/5 264/2/5 261/2/5
f 275/1/5 267/1/5 266/1/5
f 276/1/5 267/1/5 275/1/5
f 277/1/5 263/1/5 268/1/5
f 278/1/5 270/1/5 272/1/5
f 279/1/5 270/1/5 278/1/5
f 280/2/5 273/2/5 261/2/5
f 281/1/5 277/1/5 276/1/5
f 281/2/5 273/2/5 280/2/5
f 281/1/5 276/1/5 275/1/5
f 281/1/5 274/1/5 273/1/5
f 281/1/5 275/1/5 274/1/5
f 282/1/5 263/1/5 277/1/5
f 282/1/5 277/1/5 281/1/5
f 285/1/5 284/1/5 283/1/5
f 286/1/5 284/1/5 285/1/5
f 287/1/5 285/1/5 283/1/5
f 288/1/5 285/1/5 287/1/5
f 289/1/5 287/1/5 283/1/5
f 291/1/5 290/1/5 289/1/5
f 293/1/5 291/1/5 289/1/5
f 293/1/5 292/1/5 291/1/5
f 293/1/5 289/1/5 283/1/5
f 294/1/5 292/1/5 293/1/5
f 297/2/5 296/2/5 295/2/5
f 298/2/5 296/2/5 297/2/5
f 299/1/6 300/1/6 301/1/6
f 301/1/6 300/1/6 302/1/6
f 302/1/6 300/1/6 303/1/6
f 303/1/6 300/1/6 304/1/6
f 302/1/6 303/1/6 306/1/6
f 306/1/6 303/1/6 307/1/6
f 305/1/6 306/1/6 309/1/6
f 307/1/6 308/1/6 309/1/6
f 306/1/6 307/1/6 309/1/6
f 309/1/6 308/1/6 310/1/6
f 311/2/6 312/2/6 316/2/6
f 312/1/6 313/1/6 316/1/6
f 316/1/6 313/1/6 317/1/6
f 317/1/6 313/1/6 318/1/6
f 314/1/6 315/1/6 321/1/6
f 321/1/6 315/1/6 322/1/6
f 322/1/6 315/1/6 323/1/6
f 322/3/6 323/3/6 324/3/6
f 324/3/6 323/3/6 325/3/6
f 311/2/6 316/2/6 328/2/6
f 318/1/6 319/1/6 330/1/6
f 330/1/6 319/1/6 331/1/6
f 320/1/6 321/1/6 332/1/6
f 332/1/6 321/1/6 333/1/6
f 326/3/6 327/3/6 334/3/6
f 334/3/6 327/3/6 335/3/6
f 311/2/6 328/2/6 336/2/6
f 328/1/6 329/1/6 337/1/6
f 336/2/6 328/2/6 337/2/6
f 329/1/6 330/1/6 337/1/6
f 337/1/6 330/1/6 338/1/6
f 334/1/6 335/1/6 339/1/6
f 333/1/6 334/1/6 339/1/6
f 339/1/6 335/1/6 340/1/6
f 346/1/6 347/1/6 348/1/6
f 346/1/6 348/1/6 350/1/6
f 348/2/6 349/2/6 350/2/6
f 350/2/6 349/2/6 351/2/6
f 341/2/6 342/2/6 352/2/6
f 342/1/6 343/1/6 353/1/6
f 352/2/6 342/2/6 353/2/6
f 353/1/6 343/1/6 354/1/6
f 344/1/6 345/1/6 355/1/6
f 355/1/6 345/1/6 356/1/6
f 346/1/6 350/1/6 357/1/6
f 357/1/6 350/1/6 358/1/6
f 359/3/6 360/3/6 363/3/6
f 363/3/6 360/3/6 364/3/6
f 361/3/6 362/3/6 365/3/6
f 365/3/6 362/3/6 366/3/6
f 367/3/6 368/3/6 369/3/6
f 369/3/6 368/3/6 370/3/6
f 371/3/6 372/3/6 373/3/6
f 373/3/6 372/3/6 374/3/6
