# MagicaVoxel @ Ephtracy

# group
o 

# material
mtllib Wall 01.mtl
usemtl palette

# normals
vn -1 0 0
vn 1 0 0
vn 0 0 1
vn 0 0 -1
vn 0 -1 0
vn 0 1 0

# texcoords
vt 0.185547 0.5
vt 0.306641 0.5
vt 0.751953 0.5

# verts
v 0 0.1 0
v 0 0.1 -3.2
v 0 2.6 0
v 0 2.6 -0.1
v 0 2.6 -0.2
v 0 3.8 0
v 0 3.8 -0.1
v 0 3.8 -0.2
v 0 6.5 0
v 0 6.5 -3.2
v 1.2 0.1 0
v 1.2 0.1 -0.1
v 1.2 2.6 0
v 1.2 2.6 -0.1
v 1.2 3.8 0
v 1.2 3.8 -0.1
v 1.2 6.4 -0.1
v 1.2 6.4 -3.1
v 1.2 6.4 -3.2
v 1.2 6.5 0
v 1.2 6.5 -3.2
v 4.4 0.1 0
v 4.4 0.1 -0.1
v 4.4 2.6 0
v 4.4 2.6 -0.1
v 4.4 3.8 0
v 4.4 3.8 -0.1
v 4.4 6.4 -0.1
v 4.4 6.4 -3.1
v 4.4 6.4 -3.2
v 4.4 6.5 0
v 4.4 6.5 -3.2
v 9.2 0.1 0
v 9.2 0.1 -0.1
v 9.2 2.6 0
v 9.2 2.6 -0.1
v 9.2 3.8 0
v 9.2 3.8 -0.1
v 9.2 6.4 -0.1
v 9.2 6.4 -3.1
v 9.2 6.4 -3.2
v 9.2 6.5 0
v 9.2 6.5 -3.2
v 11.6 0.1 0
v 11.6 0.1 -0.1
v 11.6 2.6 0
v 11.6 2.6 -0.1
v 11.6 3.8 0
v 11.6 3.8 -0.1
v 11.6 6.4 -0.1
v 11.6 6.4 -3.1
v 11.6 6.4 -3.2
v 11.6 6.5 0
v 11.6 6.5 -3.2
v 1 0.1 0
v 1 0.1 -0.1
v 1 2.6 0
v 1 2.6 -0.1
v 1 3.8 0
v 1 3.8 -0.1
v 1 6.4 -0.1
v 1 6.4 -3.1
v 1 6.4 -3.2
v 1 6.5 0
v 1 6.5 -3.2
v 3.4 0.1 0
v 3.4 0.1 -0.1
v 3.4 2.6 0
v 3.4 2.6 -0.1
v 3.4 3.8 0
v 3.4 3.8 -0.1
v 3.4 6.4 -0.1
v 3.4 6.4 -3.1
v 3.4 6.4 -3.2
v 3.4 6.5 0
v 3.4 6.5 -3.2
v 8.2 0.1 0
v 8.2 0.1 -0.1
v 8.2 2.6 0
v 8.2 2.6 -0.1
v 8.2 3.8 0
v 8.2 3.8 -0.1
v 8.2 6.4 -0.1
v 8.2 6.4 -3.1
v 8.2 6.4 -3.2
v 8.2 6.5 0
v 8.2 6.5 -3.2
v 11.4 0.1 0
v 11.4 0.1 -0.1
v 11.4 2.6 0
v 11.4 2.6 -0.1
v 11.4 3.8 0
v 11.4 3.8 -0.1
v 11.4 6.4 -0.1
v 11.4 6.4 -3.1
v 11.4 6.4 -3.2
v 11.4 6.5 0
v 11.4 6.5 -3.2
v 12.6 0.1 0
v 12.6 0.1 -3.2
v 12.6 2.6 0
v 12.6 2.6 -0.1
v 12.6 2.6 -0.2
v 12.6 2.6 -3
v 12.6 2.6 -3.1
v 12.6 3.8 0
v 12.6 3.8 -0.1
v 12.6 3.8 -0.2
v 12.6 3.8 -3
v 12.6 3.8 -3.1
v 12.6 6.5 0
v 12.6 6.5 -3.2
v 0 0.1 0
v 0 2.6 0
v 0 3.8 0
v 0 6.5 0
v 1 0.1 0
v 1 2.6 0
v 1 3.8 0
v 1 6.5 0
v 1.2 0.1 0
v 1.2 2.6 0
v 1.2 3.8 0
v 1.2 6.5 0
v 3.4 0.1 0
v 3.4 2.6 0
v 3.4 3.8 0
v 3.4 6.5 0
v 4.4 0.1 0
v 4.4 2.6 0
v 4.4 3.8 0
v 4.4 6.5 0
v 8.2 0.1 0
v 8.2 2.6 0
v 8.2 3.8 0
v 8.2 6.5 0
v 9.2 0.1 0
v 9.2 2.6 0
v 9.2 3.8 0
v 9.2 6.5 0
v 11.4 0.1 0
v 11.4 2.6 0
v 11.4 3.8 0
v 11.4 6.5 0
v 11.6 0.1 0
v 11.6 2.6 0
v 11.6 3.8 0
v 11.6 6.5 0
v 12.6 0.1 0
v 12.6 2.6 0
v 12.6 3.8 0
v 12.6 6.5 0
v 0 2.6 -0.1
v 0 3.8 -0.1
v 1 0.1 -0.1
v 1 2.6 -0.1
v 1 3.8 -0.1
v 1 6.4 -0.1
v 1.2 0.1 -0.1
v 1.2 2.6 -0.1
v 1.2 3.8 -0.1
v 1.2 6.4 -0.1
v 3.4 0.1 -0.1
v 3.4 2.6 -0.1
v 3.4 3.8 -0.1
v 3.4 6.4 -0.1
v 4.4 0.1 -0.1
v 4.4 2.6 -0.1
v 4.4 3.8 -0.1
v 4.4 6.4 -0.1
v 8.2 0.1 -0.1
v 8.2 2.6 -0.1
v 8.2 3.8 -0.1
v 8.2 6.4 -0.1
v 9.2 0.1 -0.1
v 9.2 2.6 -0.1
v 9.2 3.8 -0.1
v 9.2 6.4 -0.1
v 11.4 0.1 -0.1
v 11.4 2.6 -0.1
v 11.4 3.8 -0.1
v 11.4 6.4 -0.1
v 11.6 0.1 -0.1
v 11.6 2.6 -0.1
v 11.6 3.8 -0.1
v 11.6 6.4 -0.1
v 12.6 2.6 -0.1
v 12.6 3.8 -0.1
v 0 0.1 -3.2
v 0 6.5 -3.2
v 1 6.4 -3.2
v 1 6.5 -3.2
v 1.2 6.4 -3.2
v 1.2 6.5 -3.2
v 3.4 6.4 -3.2
v 3.4 6.5 -3.2
v 4.4 6.4 -3.2
v 4.4 6.5 -3.2
v 8.2 6.4 -3.2
v 8.2 6.5 -3.2
v 9.2 6.4 -3.2
v 9.2 6.5 -3.2
v 11.4 6.4 -3.2
v 11.4 6.5 -3.2
v 11.6 6.4 -3.2
v 11.6 6.5 -3.2
v 12.6 0.1 -3.2
v 12.6 6.5 -3.2
v 0 0.1 0
v 1 0.1 0
v 1.2 0.1 0
v 3.4 0.1 0
v 4.4 0.1 0
v 8.2 0.1 0
v 9.2 0.1 0
v 11.4 0.1 0
v 11.6 0.1 0
v 12.6 0.1 0
v 0.1 0.1 -0.1
v 1 0.1 -0.1
v 1.2 0.1 -0.1
v 3.4 0.1 -0.1
v 4.4 0.1 -0.1
v 8.2 0.1 -0.1
v 9.2 0.1 -0.1
v 11.4 0.1 -0.1
v 11.6 0.1 -0.1
v 12.5 0.1 -0.1
v 1 0.1 -0.2
v 1.2 0.1 -0.2
v 3.4 0.1 -0.2
v 4.4 0.1 -0.2
v 8.2 0.1 -0.2
v 9.2 0.1 -0.2
v 11.4 0.1 -0.2
v 11.6 0.1 -0.2
v 1 0.1 -3
v 1.2 0.1 -3
v 3.4 0.1 -3
v 4.4 0.1 -3
v 8.2 0.1 -3
v 9.2 0.1 -3
v 11.4 0.1 -3
v 11.6 0.1 -3
v 0.1 0.1 -3.1
v 1 0.1 -3.1
v 1.2 0.1 -3.1
v 3.4 0.1 -3.1
v 4.4 0.1 -3.1
v 8.2 0.1 -3.1
v 9.2 0.1 -3.1
v 11.4 0.1 -3.1
v 11.6 0.1 -3.1
v 12.5 0.1 -3.1
v 0 0.1 -3.2
v 12.6 0.1 -3.2
v 0 3.8 0
v 1 3.8 0
v 1.2 3.8 0
v 3.4 3.8 0
v 4.4 3.8 0
v 8.2 3.8 0
v 9.2 3.8 0
v 11.4 3.8 0
v 11.6 3.8 0
v 12.6 3.8 0
v 0 3.8 -0.1
v 1 3.8 -0.1
v 1.2 3.8 -0.1
v 3.4 3.8 -0.1
v 4.4 3.8 -0.1
v 8.2 3.8 -0.1
v 9.2 3.8 -0.1
v 11.4 3.8 -0.1
v 11.6 3.8 -0.1
v 12.6 3.8 -0.1
v 0 2.6 0
v 1 2.6 0
v 1.2 2.6 0
v 3.4 2.6 0
v 4.4 2.6 0
v 8.2 2.6 0
v 9.2 2.6 0
v 11.4 2.6 0
v 11.6 2.6 0
v 12.6 2.6 0
v 0 2.6 -0.1
v 1 2.6 -0.1
v 1.2 2.6 -0.1
v 3.4 2.6 -0.1
v 4.4 2.6 -0.1
v 8.2 2.6 -0.1
v 9.2 2.6 -0.1
v 11.4 2.6 -0.1
v 11.6 2.6 -0.1
v 12.6 2.6 -0.1
v 1 6.4 -0.1
v 1.2 6.4 -0.1
v 3.4 6.4 -0.1
v 4.4 6.4 -0.1
v 8.2 6.4 -0.1
v 9.2 6.4 -0.1
v 11.4 6.4 -0.1
v 11.6 6.4 -0.1
v 1 6.4 -3.1
v 1.2 6.4 -3.1
v 3.4 6.4 -3.1
v 4.4 6.4 -3.1
v 8.2 6.4 -3.1
v 9.2 6.4 -3.1
v 11.4 6.4 -3.1
v 11.6 6.4 -3.1
v 1 6.4 -3.2
v 1.2 6.4 -3.2
v 3.4 6.4 -3.2
v 4.4 6.4 -3.2
v 8.2 6.4 -3.2
v 9.2 6.4 -3.2
v 11.4 6.4 -3.2
v 11.6 6.4 -3.2
v 0 6.5 0
v 1 6.5 0
v 1.2 6.5 0
v 3.4 6.5 0
v 4.4 6.5 0
v 8.2 6.5 0
v 9.2 6.5 0
v 11.4 6.5 0
v 11.6 6.5 0
v 12.6 6.5 0
v 0 6.5 -3.2
v 1 6.5 -3.2
v 1.2 6.5 -3.2
v 3.4 6.5 -3.2
v 4.4 6.5 -3.2
v 8.2 6.5 -3.2
v 9.2 6.5 -3.2
v 11.4 6.5 -3.2
v 11.6 6.5 -3.2
v 12.6 6.5 -3.2

# faces
f 3/3/1 2/3/1 1/3/1
f 4/3/1 2/3/1 3/3/1
f 5/3/1 2/3/1 4/3/1
f 7/1/1 5/1/1 4/1/1
f 8/3/1 2/3/1 5/3/1
f 8/1/1 5/1/1 7/1/1
f 9/3/1 7/3/1 6/3/1
f 9/3/1 8/3/1 7/3/1
f 10/3/1 2/3/1 8/3/1
f 10/3/1 8/3/1 9/3/1
f 13/3/1 12/3/1 11/3/1
f 14/3/1 12/3/1 13/3/1
f 17/3/1 16/3/1 15/3/1
f 20/3/1 17/3/1 15/3/1
f 20/3/1 19/3/1 18/3/1
f 20/3/1 18/3/1 17/3/1
f 21/3/1 19/3/1 20/3/1
f 24/3/1 23/3/1 22/3/1
f 25/3/1 23/3/1 24/3/1
f 28/3/1 27/3/1 26/3/1
f 31/3/1 28/3/1 26/3/1
f 31/3/1 30/3/1 29/3/1
f 31/3/1 29/3/1 28/3/1
f 32/3/1 30/3/1 31/3/1
f 35/3/1 34/3/1 33/3/1
f 36/3/1 34/3/1 35/3/1
f 39/3/1 38/3/1 37/3/1
f 42/3/1 39/3/1 37/3/1
f 42/3/1 41/3/1 40/3/1
f 42/3/1 40/3/1 39/3/1
f 43/3/1 41/3/1 42/3/1
f 46/3/1 45/3/1 44/3/1
f 47/3/1 45/3/1 46/3/1
f 50/3/1 49/3/1 48/3/1
f 53/3/1 50/3/1 48/3/1
f 53/3/1 52/3/1 51/3/1
f 53/3/1 51/3/1 50/3/1
f 54/3/1 52/3/1 53/3/1
f 55/3/2 56/3/2 57/3/2
f 57/3/2 56/3/2 58/3/2
f 59/3/2 60/3/2 61/3/2
f 59/3/2 61/3/2 64/3/2
f 62/3/2 63/3/2 64/3/2
f 61/3/2 62/3/2 64/3/2
f 64/3/2 63/3/2 65/3/2
f 66/3/2 67/3/2 68/3/2
f 68/3/2 67/3/2 69/3/2
f 70/3/2 71/3/2 72/3/2
f 70/3/2 72/3/2 75/3/2
f 73/3/2 74/3/2 75/3/2
f 72/3/2 73/3/2 75/3/2
f 75/3/2 74/3/2 76/3/2
f 77/3/2 78/3/2 79/3/2
f 79/3/2 78/3/2 80/3/2
f 81/3/2 82/3/2 83/3/2
f 81/3/2 83/3/2 86/3/2
f 84/3/2 85/3/2 86/3/2
f 83/3/2 84/3/2 86/3/2
f 86/3/2 85/3/2 87/3/2
f 88/3/2 89/3/2 90/3/2
f 90/3/2 89/3/2 91/3/2
f 92/3/2 93/3/2 94/3/2
f 92/3/2 94/3/2 97/3/2
f 95/3/2 96/3/2 97/3/2
f 94/3/2 95/3/2 97/3/2
f 97/3/2 96/3/2 98/3/2
f 99/3/2 100/3/2 101/3/2
f 101/3/2 100/3/2 102/3/2
f 102/3/2 100/3/2 103/3/2
f 103/3/2 100/3/2 104/3/2
f 104/3/2 100/3/2 105/3/2
f 102/1/2 103/1/2 107/1/2
f 103/3/2 104/3/2 108/3/2
f 107/1/2 103/1/2 108/1/2
f 104/1/2 105/1/2 109/1/2
f 108/3/2 104/3/2 109/3/2
f 105/3/2 100/3/2 110/3/2
f 109/1/2 105/1/2 110/1/2
f 108/3/2 109/3/2 111/3/2
f 107/3/2 108/3/2 111/3/2
f 109/3/2 110/3/2 111/3/2
f 106/3/2 107/3/2 111/3/2
f 110/3/2 100/3/2 112/3/2
f 111/3/2 110/3/2 112/3/2
f 117/3/3 114/3/3 113/3/3
f 118/3/3 114/3/3 117/3/3
f 119/3/3 116/3/3 115/3/3
f 120/3/3 116/3/3 119/3/3
f 125/3/3 122/3/3 121/3/3
f 126/3/3 122/3/3 125/3/3
f 127/3/3 124/3/3 123/3/3
f 128/3/3 124/3/3 127/3/3
f 133/3/3 130/3/3 129/3/3
f 134/3/3 130/3/3 133/3/3
f 135/3/3 132/3/3 131/3/3
f 136/3/3 132/3/3 135/3/3
f 141/3/3 138/3/3 137/3/3
f 142/3/3 138/3/3 141/3/3
f 143/3/3 140/3/3 139/3/3
f 144/3/3 140/3/3 143/3/3
f 149/3/3 146/3/3 145/3/3
f 150/3/3 146/3/3 149/3/3
f 151/3/3 148/3/3 147/3/3
f 152/3/3 148/3/3 151/3/3
f 156/1/3 154/1/3 153/1/3
f 157/1/3 154/1/3 156/1/3
f 159/1/3 156/1/3 155/1/3
f 159/1/3 158/1/3 157/1/3
f 159/1/3 157/1/3 156/1/3
f 160/1/3 158/1/3 159/1/3
f 161/1/3 158/1/3 160/1/3
f 162/1/3 158/1/3 161/1/3
f 164/1/3 161/1/3 160/1/3
f 165/1/3 161/1/3 164/1/3
f 167/1/3 164/1/3 163/1/3
f 167/1/3 166/1/3 165/1/3
f 167/1/3 165/1/3 164/1/3
f 168/1/3 166/1/3 167/1/3
f 169/1/3 166/1/3 168/1/3
f 170/1/3 166/1/3 169/1/3
f 172/1/3 169/1/3 168/1/3
f 173/1/3 169/1/3 172/1/3
f 175/1/3 172/1/3 171/1/3
f 175/1/3 174/1/3 173/1/3
f 175/1/3 173/1/3 172/1/3
f 176/1/3 174/1/3 175/1/3
f 177/1/3 174/1/3 176/1/3
f 178/1/3 174/1/3 177/1/3
f 180/1/3 177/1/3 176/1/3
f 181/1/3 177/1/3 180/1/3
f 183/1/3 180/1/3 179/1/3
f 183/1/3 182/1/3 181/1/3
f 183/1/3 181/1/3 180/1/3
f 184/1/3 182/1/3 183/1/3
f 185/1/3 182/1/3 184/1/3
f 186/1/3 182/1/3 185/1/3
f 187/1/3 185/1/3 184/1/3
f 188/1/3 185/1/3 187/1/3
f 189/3/4 190/3/4 191/3/4
f 191/3/4 190/3/4 192/3/4
f 189/3/4 191/3/4 193/3/4
f 189/3/4 193/3/4 195/3/4
f 193/3/4 194/3/4 195/3/4
f 195/3/4 194/3/4 196/3/4
f 189/3/4 195/3/4 197/3/4
f 189/3/4 197/3/4 199/3/4
f 197/3/4 198/3/4 199/3/4
f 199/3/4 198/3/4 200/3/4
f 189/3/4 199/3/4 201/3/4
f 189/3/4 201/3/4 203/3/4
f 201/3/4 202/3/4 203/3/4
f 203/3/4 202/3/4 204/3/4
f 189/3/4 203/3/4 205/3/4
f 189/3/4 205/3/4 207/3/4
f 205/3/4 206/3/4 207/3/4
f 207/3/4 206/3/4 208/3/4
f 219/3/5 210/3/5 209/3/5
f 220/3/5 210/3/5 219/3/5
f 221/3/5 212/3/5 211/3/5
f 222/3/5 212/3/5 221/3/5
f 223/3/5 214/3/5 213/3/5
f 224/3/5 214/3/5 223/3/5
f 225/3/5 216/3/5 215/3/5
f 226/3/5 216/3/5 225/3/5
f 227/3/5 218/3/5 217/3/5
f 228/3/5 218/3/5 227/3/5
f 229/2/5 220/2/5 219/2/5
f 229/1/5 221/1/5 220/1/5
f 230/2/5 222/2/5 221/2/5
f 230/1/5 221/1/5 229/1/5
f 231/1/5 223/1/5 222/1/5
f 231/2/5 222/2/5 230/2/5
f 232/2/5 224/2/5 223/2/5
f 232/1/5 223/1/5 231/1/5
f 233/1/5 225/1/5 224/1/5
f 233/2/5 224/2/5 232/2/5
f 234/2/5 226/2/5 225/2/5
f 234/1/5 225/1/5 233/1/5
f 235/1/5 227/1/5 226/1/5
f 235/2/5 226/2/5 234/2/5
f 236/2/5 228/2/5 227/2/5
f 236/1/5 227/1/5 235/1/5
f 237/2/5 233/2/5 232/2/5
f 237/2/5 229/2/5 219/2/5
f 237/2/5 236/2/5 235/2/5
f 237/2/5 234/2/5 233/2/5
f 237/2/5 231/2/5 230/2/5
f 237/2/5 232/2/5 231/2/5
f 237/2/5 235/2/5 234/2/5
f 237/2/5 230/2/5 229/2/5
f 238/2/5 236/2/5 237/2/5
f 239/2/5 236/2/5 238/2/5
f 240/2/5 236/2/5 239/2/5
f 241/2/5 236/2/5 240/2/5
f 242/2/5 236/2/5 241/2/5
f 243/2/5 236/2/5 242/2/5
f 244/2/5 228/2/5 236/2/5
f 244/2/5 236/2/5 243/2/5
f 245/3/5 219/3/5 209/3/5
f 245/2/5 237/2/5 219/2/5
f 246/1/5 238/1/5 237/1/5
f 246/2/5 237/2/5 245/2/5
f 247/2/5 239/2/5 238/2/5
f 247/1/5 238/1/5 246/1/5
f 248/1/5 240/1/5 239/1/5
f 248/2/5 239/2/5 247/2/5
f 249/2/5 241/2/5 240/2/5
f 249/1/5 240/1/5 248/1/5
f 250/1/5 242/1/5 241/1/5
f 250/2/5 241/2/5 249/2/5
f 251/2/5 243/2/5 242/2/5
f 251/1/5 242/1/5 250/1/5
f 252/1/5 244/1/5 243/1/5
f 252/2/5 243/2/5 251/2/5
f 253/2/5 228/2/5 244/2/5
f 253/1/5 244/1/5 252/1/5
f 254/3/5 218/3/5 228/3/5
f 254/2/5 228/2/5 253/2/5
f 255/3/5 250/3/5 249/3/5
f 255/3/5 253/3/5 252/3/5
f 255/3/5 254/3/5 253/3/5
f 255/3/5 249/3/5 248/3/5
f 255/3/5 248/3/5 247/3/5
f 255/3/5 247/3/5 246/3/5
f 255/3/5 246/3/5 245/3/5
f 255/3/5 245/3/5 209/3/5
f 255/3/5 251/3/5 250/3/5
f 255/3/5 252/3/5 251/3/5
f 256/3/5 218/3/5 254/3/5
f 256/3/5 254/3/5 255/3/5
f 267/3/5 258/3/5 257/3/5
f 268/3/5 258/3/5 267/3/5
f 269/3/5 260/3/5 259/3/5
f 270/3/5 260/3/5 269/3/5
f 271/3/5 262/3/5 261/3/5
f 272/3/5 262/3/5 271/3/5
f 273/3/5 264/3/5 263/3/5
f 274/3/5 264/3/5 273/3/5
f 275/3/5 266/3/5 265/3/5
f 276/3/5 266/3/5 275/3/5
f 277/3/6 278/3/6 287/3/6
f 287/3/6 278/3/6 288/3/6
f 279/3/6 280/3/6 289/3/6
f 289/3/6 280/3/6 290/3/6
f 281/3/6 282/3/6 291/3/6
f 291/3/6 282/3/6 292/3/6
f 283/3/6 284/3/6 293/3/6
f 293/3/6 284/3/6 294/3/6
f 285/3/6 286/3/6 295/3/6
f 295/3/6 286/3/6 296/3/6
f 297/1/6 298/1/6 305/1/6
f 305/1/6 298/1/6 306/1/6
f 299/1/6 300/1/6 307/1/6
f 307/1/6 300/1/6 308/1/6
f 301/1/6 302/1/6 309/1/6
f 309/1/6 302/1/6 310/1/6
f 303/1/6 304/1/6 311/1/6
f 311/1/6 304/1/6 312/1/6
f 305/3/6 306/3/6 313/3/6
f 313/3/6 306/3/6 314/3/6
f 307/3/6 308/3/6 315/3/6
f 315/3/6 308/3/6 316/3/6
f 309/3/6 310/3/6 317/3/6
f 317/3/6 310/3/6 318/3/6
f 311/3/6 312/3/6 319/3/6
f 319/3/6 312/3/6 320/3/6
f 321/3/6 322/3/6 331/3/6
f 331/3/6 322/3/6 332/3/6
f 323/3/6 324/3/6 333/3/6
f 333/3/6 324/3/6 334/3/6
f 325/3/6 326/3/6 335/3/6
f 335/3/6 326/3/6 336/3/6
f 327/3/6 328/3/6 337/3/6
f 337/3/6 328/3/6 338/3/6
f 329/3/6 330/3/6 339/3/6
f 339/3/6 330/3/6 340/3/6
