# MagicaVoxel @ Ephtracy

# group
o 

# material
mtllib Wall 03.mtl
usemtl palette

# normals
vn -1 0 0
vn 1 0 0
vn 0 0 1
vn 0 0 -1
vn 0 -1 0
vn 0 1 0

# texcoords
vt 0.841797 0.5
vt 0.994141 0.5

# verts
v 0 0.1 0
v 0 0.1 -3.2
v 0 0.9 0
v 0 0.9 -0.1
v 0 0.9 -3.2
v 0 1.2 0
v 0 1.2 -0.1
v 0 1.2 -3.2
v 0 1.9 0
v 0 1.9 -0.1
v 0 1.9 -3.2
v 0 2.2 0
v 0 2.2 -0.1
v 0 2.2 -3.2
v 0 4.4 0
v 0 4.4 -0.1
v 0 4.4 -3.2
v 0 4.7 0
v 0 4.7 -0.1
v 0 4.7 -3.2
v 0 5.4 0
v 0 5.4 -0.1
v 0 5.4 -3.2
v 0 5.7 0
v 0 5.7 -0.1
v 0 5.7 -3.2
v 0 6.5 0
v 0 6.5 -3.2
v 0.6 0.1 -0.9
v 0.6 0.1 -1
v 0.6 0.2 -0.9
v 0.6 0.2 -1
v 1.4 0.1 0
v 1.4 0.1 -3.2
v 1.4 0.2 -0.1
v 1.4 0.2 -3.2
v 1.4 0.9 0
v 1.4 0.9 -0.1
v 1.4 1.2 0
v 1.4 1.2 -0.1
v 1.4 1.9 0
v 1.4 1.9 -0.1
v 1.4 2.2 0
v 1.4 2.2 -0.1
v 1.4 4.4 0
v 1.4 4.4 -0.1
v 1.4 4.7 0
v 1.4 4.7 -0.1
v 1.4 5.4 0
v 1.4 5.4 -0.1
v 1.4 5.7 0
v 1.4 5.7 -0.1
v 1.4 6.4 -0.1
v 1.4 6.4 -3.2
v 1.4 6.5 0
v 1.4 6.5 -3.2
v 11.4 0.1 0
v 11.4 0.1 -3.2
v 11.4 0.2 -0.1
v 11.4 0.2 -3.2
v 11.4 0.9 0
v 11.4 0.9 -0.1
v 11.4 1.2 0
v 11.4 1.2 -0.1
v 11.4 1.9 0
v 11.4 1.9 -0.1
v 11.4 2.2 0
v 11.4 2.2 -0.1
v 11.4 4.4 0
v 11.4 4.4 -0.1
v 11.4 4.7 0
v 11.4 4.7 -0.1
v 11.4 5.4 0
v 11.4 5.4 -0.1
v 11.4 5.7 0
v 11.4 5.7 -0.1
v 11.4 6.4 -0.1
v 11.4 6.4 -3.2
v 11.4 6.5 0
v 11.4 6.5 -3.2
v 0.3 0.1 -0.9
v 0.3 0.1 -1
v 0.3 0.2 -0.9
v 0.3 0.2 -1
v 1.2 0.1 0
v 1.2 0.1 -3.2
v 1.2 0.2 -0.1
v 1.2 0.2 -3.2
v 1.2 0.9 0
v 1.2 0.9 -0.1
v 1.2 1.2 0
v 1.2 1.2 -0.1
v 1.2 1.9 0
v 1.2 1.9 -0.1
v 1.2 2.2 0
v 1.2 2.2 -0.1
v 1.2 4.4 0
v 1.2 4.4 -0.1
v 1.2 4.7 0
v 1.2 4.7 -0.1
v 1.2 5.4 0
v 1.2 5.4 -0.1
v 1.2 5.7 0
v 1.2 5.7 -0.1
v 1.2 6.4 -0.1
v 1.2 6.4 -3.2
v 1.2 6.5 0
v 1.2 6.5 -3.2
v 11.2 0.1 0
v 11.2 0.1 -3.2
v 11.2 0.2 -0.1
v 11.2 0.2 -3.2
v 11.2 0.9 0
v 11.2 0.9 -0.1
v 11.2 1.2 0
v 11.2 1.2 -0.1
v 11.2 1.9 0
v 11.2 1.9 -0.1
v 11.2 2.2 0
v 11.2 2.2 -0.1
v 11.2 4.4 0
v 11.2 4.4 -0.1
v 11.2 4.7 0
v 11.2 4.7 -0.1
v 11.2 5.4 0
v 11.2 5.4 -0.1
v 11.2 5.7 0
v 11.2 5.7 -0.1
v 11.2 6.4 -0.1
v 11.2 6.4 -3.2
v 11.2 6.5 0
v 11.2 6.5 -3.2
v 12.6 0.1 0
v 12.6 0.1 -3.2
v 12.6 0.9 0
v 12.6 0.9 -0.1
v 12.6 0.9 -3.2
v 12.6 1.2 0
v 12.6 1.2 -0.1
v 12.6 1.2 -3.2
v 12.6 1.9 0
v 12.6 1.9 -0.1
v 12.6 1.9 -3.2
v 12.6 2.2 0
v 12.6 2.2 -0.1
v 12.6 2.2 -3.2
v 12.6 4.4 0
v 12.6 4.4 -0.1
v 12.6 4.4 -3.2
v 12.6 4.7 0
v 12.6 4.7 -0.1
v 12.6 4.7 -3.2
v 12.6 5.4 0
v 12.6 5.4 -0.1
v 12.6 5.4 -3.2
v 12.6 5.7 0
v 12.6 5.7 -0.1
v 12.6 5.7 -3.2
v 12.6 6.5 0
v 12.6 6.5 -3.2
v 0 0.1 0
v 0 0.9 0
v 0 1.2 0
v 0 1.9 0
v 0 2.2 0
v 0 4.4 0
v 0 4.7 0
v 0 5.4 0
v 0 5.7 0
v 0 6.5 0
v 1.2 0.1 0
v 1.2 0.9 0
v 1.2 1.2 0
v 1.2 1.9 0
v 1.2 2.2 0
v 1.2 4.4 0
v 1.2 4.7 0
v 1.2 5.4 0
v 1.2 5.7 0
v 1.2 6.5 0
v 1.4 0.1 0
v 1.4 0.9 0
v 1.4 1.2 0
v 1.4 1.9 0
v 1.4 2.2 0
v 1.4 4.4 0
v 1.4 4.7 0
v 1.4 5.4 0
v 1.4 5.7 0
v 1.4 6.5 0
v 11.2 0.1 0
v 11.2 0.9 0
v 11.2 1.2 0
v 11.2 1.9 0
v 11.2 2.2 0
v 11.2 4.4 0
v 11.2 4.7 0
v 11.2 5.4 0
v 11.2 5.7 0
v 11.2 6.5 0
v 11.4 0.1 0
v 11.4 0.9 0
v 11.4 1.2 0
v 11.4 1.9 0
v 11.4 2.2 0
v 11.4 4.4 0
v 11.4 4.7 0
v 11.4 5.4 0
v 11.4 5.7 0
v 11.4 6.5 0
v 12.6 0.1 0
v 12.6 0.9 0
v 12.6 1.2 0
v 12.6 1.9 0
v 12.6 2.2 0
v 12.6 4.4 0
v 12.6 4.7 0
v 12.6 5.4 0
v 12.6 5.7 0
v 12.6 6.5 0
v 0 0.9 -0.1
v 0 1.2 -0.1
v 0 1.9 -0.1
v 0 2.2 -0.1
v 0 4.4 -0.1
v 0 4.7 -0.1
v 0 5.4 -0.1
v 0 5.7 -0.1
v 1.2 0.2 -0.1
v 1.2 0.9 -0.1
v 1.2 1.2 -0.1
v 1.2 1.9 -0.1
v 1.2 2.2 -0.1
v 1.2 4.4 -0.1
v 1.2 4.7 -0.1
v 1.2 5.4 -0.1
v 1.2 5.7 -0.1
v 1.2 6.4 -0.1
v 1.4 0.2 -0.1
v 1.4 0.9 -0.1
v 1.4 1.2 -0.1
v 1.4 1.9 -0.1
v 1.4 2.2 -0.1
v 1.4 4.4 -0.1
v 1.4 4.7 -0.1
v 1.4 5.4 -0.1
v 1.4 5.7 -0.1
v 1.4 6.4 -0.1
v 11.2 0.2 -0.1
v 11.2 0.9 -0.1
v 11.2 1.2 -0.1
v 11.2 1.9 -0.1
v 11.2 2.2 -0.1
v 11.2 4.4 -0.1
v 11.2 4.7 -0.1
v 11.2 5.4 -0.1
v 11.2 5.7 -0.1
v 11.2 6.4 -0.1
v 11.4 0.2 -0.1
v 11.4 0.9 -0.1
v 11.4 1.2 -0.1
v 11.4 1.9 -0.1
v 11.4 2.2 -0.1
v 11.4 4.4 -0.1
v 11.4 4.7 -0.1
v 11.4 5.4 -0.1
v 11.4 5.7 -0.1
v 11.4 6.4 -0.1
v 12.6 0.9 -0.1
v 12.6 1.2 -0.1
v 12.6 1.9 -0.1
v 12.6 2.2 -0.1
v 12.6 4.4 -0.1
v 12.6 4.7 -0.1
v 12.6 5.4 -0.1
v 12.6 5.7 -0.1
v 0.3 0.1 -1
v 0.3 0.2 -1
v 0.6 0.1 -1
v 0.6 0.2 -1
v 0.3 0.1 -0.9
v 0.3 0.2 -0.9
v 0.6 0.1 -0.9
v 0.6 0.2 -0.9
v 0 0.1 -3.2
v 0 0.9 -3.2
v 0 1.2 -3.2
v 0 1.9 -3.2
v 0 2.2 -3.2
v 0 4.4 -3.2
v 0 4.7 -3.2
v 0 5.4 -3.2
v 0 5.7 -3.2
v 0 6.5 -3.2
v 0.1 0.9 -3.2
v 0.1 1.2 -3.2
v 0.1 1.9 -3.2
v 0.1 2.2 -3.2
v 0.1 4.4 -3.2
v 0.1 4.7 -3.2
v 0.1 5.4 -3.2
v 0.1 5.7 -3.2
v 1.2 0.1 -3.2
v 1.2 0.2 -3.2
v 1.2 0.9 -3.2
v 1.2 5.7 -3.2
v 1.2 6.4 -3.2
v 1.2 6.5 -3.2
v 1.4 0.1 -3.2
v 1.4 0.2 -3.2
v 1.4 0.9 -3.2
v 1.4 5.7 -3.2
v 1.4 6.4 -3.2
v 1.4 6.5 -3.2
v 11.2 0.1 -3.2
v 11.2 0.2 -3.2
v 11.2 0.9 -3.2
v 11.2 5.7 -3.2
v 11.2 6.4 -3.2
v 11.2 6.5 -3.2
v 11.4 0.1 -3.2
v 11.4 0.2 -3.2
v 11.4 0.9 -3.2
v 11.4 5.7 -3.2
v 11.4 6.4 -3.2
v 11.4 6.5 -3.2
v 12.5 0.9 -3.2
v 12.5 1.2 -3.2
v 12.5 1.9 -3.2
v 12.5 2.2 -3.2
v 12.5 4.4 -3.2
v 12.5 4.7 -3.2
v 12.5 5.4 -3.2
v 12.5 5.7 -3.2
v 12.6 0.1 -3.2
v 12.6 0.9 -3.2
v 12.6 1.2 -3.2
v 12.6 1.9 -3.2
v 12.6 2.2 -3.2
v 12.6 4.4 -3.2
v 12.6 4.7 -3.2
v 12.6 5.4 -3.2
v 12.6 5.7 -3.2
v 12.6 6.5 -3.2
v 0 0.1 0
v 1.2 0.1 0
v 1.4 0.1 0
v 11.2 0.1 0
v 11.4 0.1 0
v 12.6 0.1 0
v 0.3 0.1 -0.9
v 0.6 0.1 -0.9
v 0.3 0.1 -1
v 0.6 0.1 -1
v 0 0.1 -3.2
v 1.2 0.1 -3.2
v 1.4 0.1 -3.2
v 11.2 0.1 -3.2
v 11.4 0.1 -3.2
v 12.6 0.1 -3.2
v 1.2 0.2 -0.1
v 1.4 0.2 -0.1
v 11.2 0.2 -0.1
v 11.4 0.2 -0.1
v 0.3 0.2 -0.9
v 0.6 0.2 -0.9
v 0.3 0.2 -1
v 0.6 0.2 -1
v 1.2 0.2 -3.2
v 1.4 0.2 -3.2
v 11.2 0.2 -3.2
v 11.4 0.2 -3.2
v 0 1.2 0
v 1.2 1.2 0
v 1.4 1.2 0
v 11.2 1.2 0
v 11.4 1.2 0
v 12.6 1.2 0
v 0 1.2 -0.1
v 1.2 1.2 -0.1
v 1.4 1.2 -0.1
v 11.2 1.2 -0.1
v 11.4 1.2 -0.1
v 12.6 1.2 -0.1
v 0 2.2 0
v 1.2 2.2 0
v 1.4 2.2 0
v 11.2 2.2 0
v 11.4 2.2 0
v 12.6 2.2 0
v 0 2.2 -0.1
v 1.2 2.2 -0.1
v 1.4 2.2 -0.1
v 11.2 2.2 -0.1
v 11.4 2.2 -0.1
v 12.6 2.2 -0.1
v 0 4.7 0
v 1.2 4.7 0
v 1.4 4.7 0
v 11.2 4.7 0
v 11.4 4.7 0
v 12.6 4.7 0
v 0 4.7 -0.1
v 1.2 4.7 -0.1
v 1.4 4.7 -0.1
v 11.2 4.7 -0.1
v 11.4 4.7 -0.1
v 12.6 4.7 -0.1
v 0 5.7 0
v 1.2 5.7 0
v 1.4 5.7 0
v 11.2 5.7 0
v 11.4 5.7 0
v 12.6 5.7 0
v 0 5.7 -0.1
v 1.2 5.7 -0.1
v 1.4 5.7 -0.1
v 11.2 5.7 -0.1
v 11.4 5.7 -0.1
v 12.6 5.7 -0.1
v 0 0.9 0
v 1.2 0.9 0
v 1.4 0.9 0
v 11.2 0.9 0
v 11.4 0.9 0
v 12.6 0.9 0
v 0 0.9 -0.1
v 1.2 0.9 -0.1
v 1.4 0.9 -0.1
v 11.2 0.9 -0.1
v 11.4 0.9 -0.1
v 12.6 0.9 -0.1
v 0 1.9 0
v 1.2 1.9 0
v 1.4 1.9 0
v 11.2 1.9 0
v 11.4 1.9 0
v 12.6 1.9 0
v 0 1.9 -0.1
v 1.2 1.9 -0.1
v 1.4 1.9 -0.1
v 11.2 1.9 -0.1
v 11.4 1.9 -0.1
v 12.6 1.9 -0.1
v 0 4.4 0
v 1.2 4.4 0
v 1.4 4.4 0
v 11.2 4.4 0
v 11.4 4.4 0
v 12.6 4.4 0
v 0 4.4 -0.1
v 1.2 4.4 -0.1
v 1.4 4.4 -0.1
v 11.2 4.4 -0.1
v 11.4 4.4 -0.1
v 12.6 4.4 -0.1
v 0 5.4 0
v 1.2 5.4 0
v 1.4 5.4 0
v 11.2 5.4 0
v 11.4 5.4 0
v 12.6 5.4 0
v 0 5.4 -0.1
v 1.2 5.4 -0.1
v 1.4 5.4 -0.1
v 11.2 5.4 -0.1
v 11.4 5.4 -0.1
v 12.6 5.4 -0.1
v 1.2 6.4 -0.1
v 1.4 6.4 -0.1
v 11.2 6.4 -0.1
v 11.4 6.4 -0.1
v 1.2 6.4 -3.2
v 1.4 6.4 -3.2
v 11.2 6.4 -3.2
v 11.4 6.4 -3.2
v 0 6.5 0
v 1.2 6.5 0
v 1.4 6.5 0
v 11.2 6.5 0
v 11.4 6.5 0
v 12.6 6.5 0
v 0 6.5 -3.2
v 1.2 6.5 -3.2
v 1.4 6.5 -3.2
v 11.2 6.5 -3.2
v 11.4 6.5 -3.2
v 12.6 6.5 -3.2

# faces
f 3/2/1 2/2/1 1/2/1
f 4/2/1 2/2/1 3/2/1
f 5/2/1 2/2/1 4/2/1
f 7/1/1 5/1/1 4/1/1
f 8/1/1 5/1/1 7/1/1
f 9/2/1 7/2/1 6/2/1
f 9/2/1 8/2/1 7/2/1
f 10/2/1 8/2/1 9/2/1
f 11/2/1 8/2/1 10/2/1
f 13/1/1 11/1/1 10/1/1
f 14/1/1 11/1/1 13/1/1
f 15/2/1 13/2/1 12/2/1
f 15/2/1 14/2/1 13/2/1
f 16/2/1 14/2/1 15/2/1
f 17/2/1 14/2/1 16/2/1
f 19/1/1 17/1/1 16/1/1
f 20/1/1 17/1/1 19/1/1
f 21/2/1 19/2/1 18/2/1
f 21/2/1 20/2/1 19/2/1
f 22/2/1 20/2/1 21/2/1
f 23/2/1 20/2/1 22/2/1
f 25/1/1 23/1/1 22/1/1
f 26/1/1 23/1/1 25/1/1
f 27/2/1 25/2/1 24/2/1
f 27/2/1 26/2/1 25/2/1
f 28/2/1 26/2/1 27/2/1
f 31/2/1 30/2/1 29/2/1
f 32/2/1 30/2/1 31/2/1
f 35/2/1 34/2/1 33/2/1
f 36/2/1 34/2/1 35/2/1
f 37/2/1 35/2/1 33/2/1
f 38/2/1 35/2/1 37/2/1
f 41/2/1 40/2/1 39/2/1
f 42/2/1 40/2/1 41/2/1
f 45/2/1 44/2/1 43/2/1
f 46/2/1 44/2/1 45/2/1
f 49/2/1 48/2/1 47/2/1
f 50/2/1 48/2/1 49/2/1
f 53/2/1 52/2/1 51/2/1
f 55/2/1 53/2/1 51/2/1
f 55/2/1 54/2/1 53/2/1
f 56/2/1 54/2/1 55/2/1
f 59/2/1 58/2/1 57/2/1
f 60/2/1 58/2/1 59/2/1
f 61/2/1 59/2/1 57/2/1
f 62/2/1 59/2/1 61/2/1
f 65/2/1 64/2/1 63/2/1
f 66/2/1 64/2/1 65/2/1
f 69/2/1 68/2/1 67/2/1
f 70/2/1 68/2/1 69/2/1
f 73/2/1 72/2/1 71/2/1
f 74/2/1 72/2/1 73/2/1
f 77/2/1 76/2/1 75/2/1
f 79/2/1 77/2/1 75/2/1
f 79/2/1 78/2/1 77/2/1
f 80/2/1 78/2/1 79/2/1
f 81/2/2 82/2/2 83/2/2
f 83/2/2 82/2/2 84/2/2
f 85/2/2 86/2/2 87/2/2
f 87/2/2 86/2/2 88/2/2
f 85/2/2 87/2/2 89/2/2
f 89/2/2 87/2/2 90/2/2
f 91/2/2 92/2/2 93/2/2
f 93/2/2 92/2/2 94/2/2
f 95/2/2 96/2/2 97/2/2
f 97/2/2 96/2/2 98/2/2
f 99/2/2 100/2/2 101/2/2
f 101/2/2 100/2/2 102/2/2
f 103/2/2 104/2/2 105/2/2
f 103/2/2 105/2/2 107/2/2
f 105/2/2 106/2/2 107/2/2
f 107/2/2 106/2/2 108/2/2
f 109/2/2 110/2/2 111/2/2
f 111/2/2 110/2/2 112/2/2
f 109/2/2 111/2/2 113/2/2
f 113/2/2 111/2/2 114/2/2
f 115/2/2 116/2/2 117/2/2
f 117/2/2 116/2/2 118/2/2
f 119/2/2 120/2/2 121/2/2
f 121/2/2 120/2/2 122/2/2
f 123/2/2 124/2/2 125/2/2
f 125/2/2 124/2/2 126/2/2
f 127/2/2 128/2/2 129/2/2
f 127/2/2 129/2/2 131/2/2
f 129/2/2 130/2/2 131/2/2
f 131/2/2 130/2/2 132/2/2
f 133/2/2 134/2/2 135/2/2
f 135/2/2 134/2/2 136/2/2
f 136/2/2 134/2/2 137/2/2
f 136/1/2 137/1/2 139/1/2
f 139/1/2 137/1/2 140/1/2
f 138/2/2 139/2/2 141/2/2
f 139/2/2 140/2/2 141/2/2
f 141/2/2 140/2/2 142/2/2
f 142/2/2 140/2/2 143/2/2
f 142/1/2 143/1/2 145/1/2
f 145/1/2 143/1/2 146/1/2
f 144/2/2 145/2/2 147/2/2
f 145/2/2 146/2/2 147/2/2
f 147/2/2 146/2/2 148/2/2
f 148/2/2 146/2/2 149/2/2
f 148/1/2 149/1/2 151/1/2
f 151/1/2 149/1/2 152/1/2
f 150/2/2 151/2/2 153/2/2
f 151/2/2 152/2/2 153/2/2
f 153/2/2 152/2/2 154/2/2
f 154/2/2 152/2/2 155/2/2
f 154/1/2 155/1/2 157/1/2
f 157/1/2 155/1/2 158/1/2
f 156/2/2 157/2/2 159/2/2
f 157/2/2 158/2/2 159/2/2
f 159/2/2 158/2/2 160/2/2
f 171/2/3 162/2/3 161/2/3
f 172/2/3 162/2/3 171/2/3
f 173/2/3 164/2/3 163/2/3
f 174/2/3 164/2/3 173/2/3
f 175/2/3 166/2/3 165/2/3
f 176/2/3 166/2/3 175/2/3
f 177/2/3 168/2/3 167/2/3
f 178/2/3 168/2/3 177/2/3
f 179/2/3 170/2/3 169/2/3
f 180/2/3 170/2/3 179/2/3
f 191/2/3 182/2/3 181/2/3
f 192/2/3 182/2/3 191/2/3
f 193/2/3 184/2/3 183/2/3
f 194/2/3 184/2/3 193/2/3
f 195/2/3 186/2/3 185/2/3
f 196/2/3 186/2/3 195/2/3
f 197/2/3 188/2/3 187/2/3
f 198/2/3 188/2/3 197/2/3
f 199/2/3 190/2/3 189/2/3
f 200/2/3 190/2/3 199/2/3
f 211/2/3 202/2/3 201/2/3
f 212/2/3 202/2/3 211/2/3
f 213/2/3 204/2/3 203/2/3
f 214/2/3 204/2/3 213/2/3
f 215/2/3 206/2/3 205/2/3
f 216/2/3 206/2/3 215/2/3
f 217/2/3 208/2/3 207/2/3
f 218/2/3 208/2/3 217/2/3
f 219/2/3 210/2/3 209/2/3
f 220/2/3 210/2/3 219/2/3
f 230/1/3 222/1/3 221/1/3
f 231/1/3 222/1/3 230/1/3
f 232/1/3 224/1/3 223/1/3
f 233/1/3 224/1/3 232/1/3
f 234/1/3 226/1/3 225/1/3
f 235/1/3 226/1/3 234/1/3
f 236/1/3 228/1/3 227/1/3
f 237/1/3 228/1/3 236/1/3
f 239/1/3 235/1/3 234/1/3
f 239/1/3 238/1/3 237/1/3
f 239/1/3 237/1/3 236/1/3
f 239/1/3 236/1/3 235/1/3
f 239/1/3 231/1/3 230/1/3
f 239/1/3 234/1/3 233/1/3
f 239/1/3 233/1/3 232/1/3
f 239/1/3 232/1/3 231/1/3
f 239/1/3 230/1/3 229/1/3
f 240/1/3 238/1/3 239/1/3
f 241/1/3 238/1/3 240/1/3
f 242/1/3 238/1/3 241/1/3
f 243/1/3 238/1/3 242/1/3
f 244/1/3 238/1/3 243/1/3
f 245/1/3 238/1/3 244/1/3
f 246/1/3 238/1/3 245/1/3
f 247/1/3 238/1/3 246/1/3
f 248/1/3 238/1/3 247/1/3
f 250/1/3 241/1/3 240/1/3
f 251/1/3 241/1/3 250/1/3
f 252/1/3 243/1/3 242/1/3
f 253/1/3 243/1/3 252/1/3
f 254/1/3 245/1/3 244/1/3
f 255/1/3 245/1/3 254/1/3
f 256/1/3 247/1/3 246/1/3
f 257/1/3 247/1/3 256/1/3
f 259/1/3 253/1/3 252/1/3
f 259/1/3 258/1/3 257/1/3
f 259/1/3 257/1/3 256/1/3
f 259/1/3 256/1/3 255/1/3
f 259/1/3 255/1/3 254/1/3
f 259/1/3 254/1/3 253/1/3
f 259/1/3 251/1/3 250/1/3
f 259/1/3 252/1/3 251/1/3
f 259/1/3 250/1/3 249/1/3
f 260/1/3 258/1/3 259/1/3
f 261/1/3 258/1/3 260/1/3
f 262/1/3 258/1/3 261/1/3
f 263/1/3 258/1/3 262/1/3
f 264/1/3 258/1/3 263/1/3
f 265/1/3 258/1/3 264/1/3
f 266/1/3 258/1/3 265/1/3
f 267/1/3 258/1/3 266/1/3
f 268/1/3 258/1/3 267/1/3
f 269/1/3 261/1/3 260/1/3
f 270/1/3 261/1/3 269/1/3
f 271/1/3 263/1/3 262/1/3
f 272/1/3 263/1/3 271/1/3
f 273/1/3 265/1/3 264/1/3
f 274/1/3 265/1/3 273/1/3
f 275/1/3 267/1/3 266/1/3
f 276/1/3 267/1/3 275/1/3
f 279/2/3 278/2/3 277/2/3
f 280/2/3 278/2/3 279/2/3
f 281/2/4 282/2/4 283/2/4
f 283/2/4 282/2/4 284/2/4
f 285/2/4 286/2/4 295/2/4
f 286/1/4 287/1/4 295/1/4
f 287/2/4 288/2/4 296/2/4
f 295/1/4 287/1/4 296/1/4
f 288/1/4 289/1/4 297/1/4
f 296/2/4 288/2/4 297/2/4
f 289/2/4 290/2/4 298/2/4
f 297/1/4 289/1/4 298/1/4
f 290/1/4 291/1/4 299/1/4
f 298/2/4 290/2/4 299/2/4
f 291/2/4 292/2/4 300/2/4
f 299/1/4 291/1/4 300/1/4
f 292/1/4 293/1/4 301/1/4
f 300/2/4 292/2/4 301/2/4
f 293/2/4 294/2/4 302/2/4
f 301/1/4 293/1/4 302/1/4
f 300/2/4 301/2/4 303/2/4
f 299/2/4 300/2/4 303/2/4
f 301/2/4 302/2/4 303/2/4
f 298/2/4 299/2/4 303/2/4
f 297/2/4 298/2/4 303/2/4
f 296/2/4 297/2/4 303/2/4
f 295/2/4 296/2/4 303/2/4
f 285/2/4 295/2/4 303/2/4
f 303/2/4 302/2/4 304/2/4
f 304/2/4 302/2/4 305/2/4
f 302/2/4 294/2/4 306/2/4
f 305/2/4 302/2/4 306/2/4
f 306/2/4 294/2/4 307/2/4
f 307/2/4 294/2/4 308/2/4
f 304/1/4 305/1/4 310/1/4
f 305/2/4 306/2/4 311/2/4
f 310/1/4 305/1/4 311/1/4
f 306/1/4 307/1/4 312/1/4
f 311/2/4 306/2/4 312/2/4
f 312/1/4 307/1/4 313/1/4
f 310/2/4 311/2/4 315/2/4
f 313/2/4 314/2/4 315/2/4
f 312/2/4 313/2/4 315/2/4
f 311/2/4 312/2/4 315/2/4
f 309/2/4 310/2/4 315/2/4
f 315/2/4 314/2/4 316/2/4
f 316/2/4 314/2/4 317/2/4
f 317/2/4 314/2/4 318/2/4
f 318/2/4 314/2/4 319/2/4
f 319/2/4 314/2/4 320/2/4
f 316/1/4 317/1/4 322/1/4
f 317/2/4 318/2/4 323/2/4
f 322/1/4 317/1/4 323/1/4
f 318/1/4 319/1/4 324/1/4
f 323/2/4 318/2/4 324/2/4
f 324/1/4 319/1/4 325/1/4
f 322/2/4 323/2/4 327/2/4
f 325/2/4 326/2/4 327/2/4
f 324/2/4 325/2/4 327/2/4
f 323/2/4 324/2/4 327/2/4
f 321/2/4 322/2/4 327/2/4
f 327/2/4 326/2/4 328/2/4
f 328/2/4 326/2/4 329/2/4
f 329/2/4 326/2/4 330/2/4
f 330/2/4 326/2/4 331/2/4
f 331/2/4 326/2/4 332/2/4
f 332/2/4 326/2/4 333/2/4
f 333/2/4 326/2/4 334/2/4
f 321/2/4 327/2/4 335/2/4
f 327/1/4 328/1/4 336/1/4
f 335/2/4 327/2/4 336/2/4
f 328/2/4 329/2/4 337/2/4
f 336/1/4 328/1/4 337/1/4
f 329/1/4 330/1/4 338/1/4
f 337/2/4 329/2/4 338/2/4
f 330/2/4 331/2/4 339/2/4
f 338/1/4 330/1/4 339/1/4
f 331/1/4 332/1/4 340/1/4
f 339/2/4 331/2/4 340/2/4
f 332/2/4 333/2/4 341/2/4
f 340/1/4 332/1/4 341/1/4
f 333/1/4 334/1/4 342/1/4
f 341/2/4 333/2/4 342/2/4
f 334/2/4 326/2/4 343/2/4
f 342/1/4 334/1/4 343/1/4
f 343/2/4 326/2/4 344/2/4
f 351/2/5 346/2/5 345/2/5
f 352/2/5 346/2/5 351/2/5
f 353/2/5 351/2/5 345/2/5
f 354/2/5 346/2/5 352/2/5
f 355/2/5 353/2/5 345/2/5
f 355/2/5 354/2/5 353/2/5
f 356/2/5 346/2/5 354/2/5
f 356/2/5 354/2/5 355/2/5
f 357/2/5 348/2/5 347/2/5
f 358/2/5 348/2/5 357/2/5
f 359/2/5 350/2/5 349/2/5
f 360/2/5 350/2/5 359/2/5
f 367/2/5 366/2/5 365/2/5
f 368/2/5 366/2/5 367/2/5
f 369/1/5 362/1/5 361/1/5
f 370/1/5 362/1/5 369/1/5
f 371/1/5 364/1/5 363/1/5
f 372/1/5 364/1/5 371/1/5
f 379/2/5 374/2/5 373/2/5
f 380/2/5 374/2/5 379/2/5
f 381/2/5 376/2/5 375/2/5
f 382/2/5 376/2/5 381/2/5
f 383/2/5 378/2/5 377/2/5
f 384/2/5 378/2/5 383/2/5
f 391/2/5 386/2/5 385/2/5
f 392/2/5 386/2/5 391/2/5
f 393/2/5 388/2/5 387/2/5
f 394/2/5 388/2/5 393/2/5
f 395/2/5 390/2/5 389/2/5
f 396/2/5 390/2/5 395/2/5
f 403/2/5 398/2/5 397/2/5
f 404/2/5 398/2/5 403/2/5
f 405/2/5 400/2/5 399/2/5
f 406/2/5 400/2/5 405/2/5
f 407/2/5 402/2/5 401/2/5
f 408/2/5 402/2/5 407/2/5
f 415/2/5 410/2/5 409/2/5
f 416/2/5 410/2/5 415/2/5
f 417/2/5 412/2/5 411/2/5
f 418/2/5 412/2/5 417/2/5
f 419/2/5 414/2/5 413/2/5
f 420/2/5 414/2/5 419/2/5
f 421/2/6 422/2/6 427/2/6
f 427/2/6 422/2/6 428/2/6
f 423/2/6 424/2/6 429/2/6
f 429/2/6 424/2/6 430/2/6
f 425/2/6 426/2/6 431/2/6
f 431/2/6 426/2/6 432/2/6
f 433/2/6 434/2/6 439/2/6
f 439/2/6 434/2/6 440/2/6
f 435/2/6 436/2/6 441/2/6
f 441/2/6 436/2/6 442/2/6
f 437/2/6 438/2/6 443/2/6
f 443/2/6 438/2/6 444/2/6
f 445/2/6 446/2/6 451/2/6
f 451/2/6 446/2/6 452/2/6
f 447/2/6 448/2/6 453/2/6
f 453/2/6 448/2/6 454/2/6
f 449/2/6 450/2/6 455/2/6
f 455/2/6 450/2/6 456/2/6
f 457/2/6 458/2/6 463/2/6
f 463/2/6 458/2/6 464/2/6
f 459/2/6 460/2/6 465/2/6
f 465/2/6 460/2/6 466/2/6
f 461/2/6 462/2/6 467/2/6
f 467/2/6 462/2/6 468/2/6
f 469/1/6 470/1/6 473/1/6
f 473/1/6 470/1/6 474/1/6
f 471/1/6 472/1/6 475/1/6
f 475/1/6 472/1/6 476/1/6
f 477/2/6 478/2/6 483/2/6
f 483/2/6 478/2/6 484/2/6
f 479/2/6 480/2/6 485/2/6
f 485/2/6 480/2/6 486/2/6
f 481/2/6 482/2/6 487/2/6
f 487/2/6 482/2/6 488/2/6
